<mxfile host="app.diagrams.net" modified="2021-10-07T14:09:27.164Z" agent="5.0 (X11; Linux x86_64) AppleWebKit/537.36 (KHTML, like Gecko) Chrome/94.0.4606.71 Safari/537.36" etag="TXPOE1IHpxLucBqz_H9z" version="15.4.3" type="github">
  <diagram id="ypimK-5_OcxXCi8E9POo" name="Page-1">
    <mxGraphModel dx="1021" dy="547" grid="1" gridSize="10" guides="1" tooltips="1" connect="1" arrows="1" fold="1" page="1" pageScale="1" pageWidth="827" pageHeight="1169" math="0" shadow="0">
      <root>
        <mxCell id="0" />
        <mxCell id="1" parent="0" />
        <mxCell id="td7fTYbP-BQIfyJZpGvQ-14" value="" style="rounded=0;whiteSpace=wrap;html=1;fillColor=#b0e3e6;strokeColor=#0e8088;" vertex="1" parent="1">
          <mxGeometry x="160" y="80" width="40" height="160" as="geometry" />
        </mxCell>
        <mxCell id="td7fTYbP-BQIfyJZpGvQ-15" value="" style="rounded=0;whiteSpace=wrap;html=1;fillColor=#b0e3e6;strokeColor=#0e8088;" vertex="1" parent="1">
          <mxGeometry x="160" y="280" width="40" height="160" as="geometry" />
        </mxCell>
        <mxCell id="td7fTYbP-BQIfyJZpGvQ-17" value="" style="html=1;shadow=0;dashed=0;align=center;verticalAlign=middle;shape=mxgraph.arrows2.arrow;dy=0.6;dx=40;notch=0;" vertex="1" parent="1">
          <mxGeometry x="40" y="340.63" width="120" height="39.37" as="geometry" />
        </mxCell>
        <mxCell id="td7fTYbP-BQIfyJZpGvQ-42" style="edgeStyle=none;rounded=0;orthogonalLoop=1;jettySize=auto;html=1;exitX=1;exitY=0.5;exitDx=0;exitDy=0;" edge="1" parent="1" source="td7fTYbP-BQIfyJZpGvQ-18">
          <mxGeometry relative="1" as="geometry">
            <mxPoint x="740" y="255" as="targetPoint" />
          </mxGeometry>
        </mxCell>
        <mxCell id="td7fTYbP-BQIfyJZpGvQ-18" value="" style="ellipse;whiteSpace=wrap;html=1;aspect=fixed;fillColor=#647687;strokeColor=#314354;fontColor=#ffffff;" vertex="1" parent="1">
          <mxGeometry x="620" y="70" width="40" height="40" as="geometry" />
        </mxCell>
        <mxCell id="td7fTYbP-BQIfyJZpGvQ-49" style="edgeStyle=none;rounded=0;orthogonalLoop=1;jettySize=auto;html=1;exitX=1;exitY=0.5;exitDx=0;exitDy=0;" edge="1" parent="1" source="td7fTYbP-BQIfyJZpGvQ-20">
          <mxGeometry relative="1" as="geometry">
            <mxPoint x="740" y="255" as="targetPoint" />
          </mxGeometry>
        </mxCell>
        <mxCell id="td7fTYbP-BQIfyJZpGvQ-20" value="" style="ellipse;whiteSpace=wrap;html=1;aspect=fixed;fillColor=#647687;strokeColor=#314354;fontColor=#ffffff;" vertex="1" parent="1">
          <mxGeometry x="620" y="150" width="40" height="40" as="geometry" />
        </mxCell>
        <mxCell id="td7fTYbP-BQIfyJZpGvQ-32" style="edgeStyle=orthogonalEdgeStyle;rounded=0;orthogonalLoop=1;jettySize=auto;html=1;exitX=1;exitY=0.5;exitDx=0;exitDy=0;entryX=0;entryY=0.5;entryDx=0;entryDy=0;" edge="1" parent="1" source="td7fTYbP-BQIfyJZpGvQ-21" target="td7fTYbP-BQIfyJZpGvQ-27">
          <mxGeometry relative="1" as="geometry" />
        </mxCell>
        <mxCell id="td7fTYbP-BQIfyJZpGvQ-21" value="" style="ellipse;whiteSpace=wrap;html=1;aspect=fixed;fillColor=#647687;strokeColor=#314354;fontColor=#ffffff;" vertex="1" parent="1">
          <mxGeometry x="620" y="230" width="40" height="40" as="geometry" />
        </mxCell>
        <mxCell id="td7fTYbP-BQIfyJZpGvQ-44" style="edgeStyle=none;rounded=0;orthogonalLoop=1;jettySize=auto;html=1;exitX=1;exitY=0.5;exitDx=0;exitDy=0;entryX=0;entryY=0.5;entryDx=0;entryDy=0;" edge="1" parent="1" source="td7fTYbP-BQIfyJZpGvQ-22" target="td7fTYbP-BQIfyJZpGvQ-27">
          <mxGeometry relative="1" as="geometry" />
        </mxCell>
        <mxCell id="td7fTYbP-BQIfyJZpGvQ-22" value="" style="ellipse;whiteSpace=wrap;html=1;aspect=fixed;fillColor=#647687;strokeColor=#314354;fontColor=#ffffff;" vertex="1" parent="1">
          <mxGeometry x="620" y="310" width="40" height="40" as="geometry" />
        </mxCell>
        <mxCell id="td7fTYbP-BQIfyJZpGvQ-39" style="edgeStyle=none;rounded=0;orthogonalLoop=1;jettySize=auto;html=1;exitX=1;exitY=0.5;exitDx=0;exitDy=0;entryX=0;entryY=0.5;entryDx=0;entryDy=0;" edge="1" parent="1" source="td7fTYbP-BQIfyJZpGvQ-23" target="td7fTYbP-BQIfyJZpGvQ-27">
          <mxGeometry relative="1" as="geometry" />
        </mxCell>
        <mxCell id="td7fTYbP-BQIfyJZpGvQ-23" value="" style="ellipse;whiteSpace=wrap;html=1;aspect=fixed;fillColor=#647687;strokeColor=#314354;fontColor=#ffffff;" vertex="1" parent="1">
          <mxGeometry x="620" y="390" width="40" height="40" as="geometry" />
        </mxCell>
        <mxCell id="td7fTYbP-BQIfyJZpGvQ-50" style="edgeStyle=none;rounded=0;orthogonalLoop=1;jettySize=auto;html=1;exitX=1;exitY=0.5;exitDx=0;exitDy=0;" edge="1" parent="1" source="td7fTYbP-BQIfyJZpGvQ-27">
          <mxGeometry relative="1" as="geometry">
            <mxPoint x="820" y="250" as="targetPoint" />
          </mxGeometry>
        </mxCell>
        <mxCell id="td7fTYbP-BQIfyJZpGvQ-27" value="" style="ellipse;whiteSpace=wrap;html=1;aspect=fixed;fillColor=#647687;strokeColor=#314354;fontColor=#ffffff;" vertex="1" parent="1">
          <mxGeometry x="740" y="230" width="40" height="40" as="geometry" />
        </mxCell>
        <mxCell id="td7fTYbP-BQIfyJZpGvQ-51" value="" style="verticalAlign=top;align=left;spacingTop=8;spacingLeft=2;spacingRight=12;shape=cube;size=100;direction=south;fontStyle=4;html=1;fillColor=#fff2cc;strokeColor=#d6b656;" vertex="1" parent="1">
          <mxGeometry x="324" y="40" width="120" height="400" as="geometry" />
        </mxCell>
        <mxCell id="td7fTYbP-BQIfyJZpGvQ-54" value="" style="verticalAlign=top;align=left;spacingTop=8;spacingLeft=2;spacingRight=12;shape=cube;size=100;direction=south;fontStyle=4;html=1;fillColor=#fff2cc;strokeColor=#d6b656;" vertex="1" parent="1">
          <mxGeometry x="384" y="40" width="120" height="400" as="geometry" />
        </mxCell>
        <mxCell id="td7fTYbP-BQIfyJZpGvQ-57" value="" style="html=1;shadow=0;dashed=0;align=center;verticalAlign=middle;shape=mxgraph.arrows2.arrow;dy=0.6;dx=40;notch=0;" vertex="1" parent="1">
          <mxGeometry x="220" y="240" width="84" height="39.37" as="geometry" />
        </mxCell>
        <mxCell id="td7fTYbP-BQIfyJZpGvQ-58" value="" style="html=1;shadow=0;dashed=0;align=center;verticalAlign=middle;shape=mxgraph.arrows2.arrow;dy=0.6;dx=40;notch=0;" vertex="1" parent="1">
          <mxGeometry x="40" y="140.63" width="120" height="39.37" as="geometry" />
        </mxCell>
        <mxCell id="td7fTYbP-BQIfyJZpGvQ-63" value="&lt;font style=&quot;font-size: 18px&quot;&gt;&lt;b&gt;Sequence&lt;/b&gt;&lt;/font&gt;" style="text;html=1;strokeColor=none;fillColor=none;align=center;verticalAlign=middle;whiteSpace=wrap;rounded=0;" vertex="1" parent="1">
          <mxGeometry x="50" y="120" width="60" height="30" as="geometry" />
        </mxCell>
        <mxCell id="td7fTYbP-BQIfyJZpGvQ-64" value="&lt;font style=&quot;font-size: 18px&quot;&gt;&lt;b&gt;Structure&lt;/b&gt;&lt;/font&gt;" style="text;html=1;strokeColor=none;fillColor=none;align=center;verticalAlign=middle;whiteSpace=wrap;rounded=0;" vertex="1" parent="1">
          <mxGeometry x="50" y="320" width="60" height="30" as="geometry" />
        </mxCell>
        <mxCell id="td7fTYbP-BQIfyJZpGvQ-66" value="&lt;font style=&quot;font-size: 18px&quot;&gt;&lt;b&gt;Dense&lt;/b&gt;&lt;/font&gt;" style="text;html=1;strokeColor=none;fillColor=none;align=center;verticalAlign=middle;whiteSpace=wrap;rounded=0;fontSize=18;" vertex="1" parent="1">
          <mxGeometry x="580" y="50" width="50" height="20" as="geometry" />
        </mxCell>
        <mxCell id="td7fTYbP-BQIfyJZpGvQ-68" value="" style="html=1;shadow=0;dashed=0;align=center;verticalAlign=middle;shape=mxgraph.arrows2.arrow;dy=0.6;dx=40;notch=0;" vertex="1" parent="1">
          <mxGeometry x="520" y="230.63" width="84" height="39.37" as="geometry" />
        </mxCell>
        <mxCell id="td7fTYbP-BQIfyJZpGvQ-69" value="&lt;font style=&quot;font-size: 18px&quot;&gt;&lt;b&gt;Convolutions&lt;/b&gt;&lt;/font&gt;" style="text;html=1;strokeColor=none;fillColor=none;align=center;verticalAlign=middle;whiteSpace=wrap;rounded=0;fontSize=18;" vertex="1" parent="1">
          <mxGeometry x="310" y="50" width="50" height="20" as="geometry" />
        </mxCell>
      </root>
    </mxGraphModel>
  </diagram>
</mxfile>
